<?xml version="1.0" standalone="no"?>
<!DOCTYPE svg PUBLIC "-//W3C//DTD SVG 20010904//EN"
 "http://www.w3.org/TR/2001/REC-SVG-20010904/DTD/svg10.dtd">
<svg version="1.0" xmlns="http://www.w3.org/2000/svg"
 width="600.000000pt" height="600.000000pt" viewBox="0 0 600.000000 600.000000"
 preserveAspectRatio="xMidYMid meet">

<g transform="translate(0.000000,600.000000) scale(0.100000,-0.100000)"
fill="#000000" stroke="none">
<path d="M866 5449 l-410 -248 -3 -1188 c-2 -653 -1 -1504 3 -1889 l6 -702
213 128 c118 71 216 126 219 122 3 -3 6 -265 6 -583 l0 -577 33 -64 c35 -68
95 -118 165 -138 25 -6 771 -10 2240 -10 l2202 0 -2 2277 -3 2278 -187 3 -188
2 -1 313 c0 212 -4 322 -12 344 -22 60 -72 117 -128 148 l-54 30 -1845 1
-1845 2 -409 -249z m2689 -611 c21 -65 625 -2080 625 -2088 0 -7 -84 -9 -267
-8 l-267 3 -56 200 c-31 110 -60 212 -64 228 l-6 27 -315 0 c-173 0 -315 -1
-315 -2 0 -2 -27 -104 -59 -228 l-58 -225 -263 -3 -262 -2 4 22 c5 22 584
2050 593 2076 3 9 83 12 355 12 272 0 352 -3 355 -12z m-933 -3313 c67 -23
124 -84 144 -152 23 -81 20 -84 -82 -81 l-86 3 -12 34 c-6 19 -23 43 -37 53
-35 26 -113 26 -148 0 -44 -33 -53 -79 -49 -272 3 -190 10 -214 64 -238 74
-34 159 -1 173 68 l7 35 93 3 94 3 -6 -46 c-14 -96 -85 -180 -175 -206 -77
-23 -217 -17 -279 10 -59 26 -123 90 -149 148 -22 49 -32 360 -15 440 24 103
99 178 210 210 58 16 190 10 253 -12z m821 -387 c64 -216 117 -396 117 -400 0
-5 -45 -8 -99 -8 -86 0 -100 2 -105 18 -2 9 -14 50 -26 90 l-21 73 -117 -3
-116 -3 -13 -45 c-6 -25 -17 -64 -23 -87 l-11 -43 -100 0 c-77 0 -100 3 -96
13 2 6 52 181 111 387 59 206 109 381 111 388 3 9 40 12 137 12 l133 0 118
-392z m622 377 c167 -44 231 -167 220 -427 -6 -136 -30 -204 -92 -264 -75 -73
-127 -87 -345 -92 l-188 -4 0 401 0 401 173 0 c123 0 190 -4 232 -15z"/>
<path d="M3190 4466 c0 -4 -45 -199 -100 -432 -55 -234 -100 -429 -100 -434 0
-6 83 -10 210 -10 157 0 210 3 210 12 0 25 -203 853 -211 863 -5 5 -9 5 -9 1z"/>
<path d="M3186 1370 c-3 -8 -21 -81 -40 -162 l-33 -148 78 0 c44 0 79 3 79 8
-3 36 -79 313 -84 302z"/>
<path d="M3868 1384 c-5 -4 -8 -119 -8 -256 l0 -248 63 0 c45 0 71 6 95 20 52
32 62 69 62 235 0 165 -10 204 -59 229 -34 18 -142 32 -153 20z"/>
</g>
</svg>
