<?xml version="1.0" standalone="no"?>
<!DOCTYPE svg PUBLIC "-//W3C//DTD SVG 20010904//EN"
 "http://www.w3.org/TR/2001/REC-SVG-20010904/DTD/svg10.dtd">
<svg version="1.0" xmlns="http://www.w3.org/2000/svg"
 width="100.000000pt" height="100.000000pt" viewBox="0 0 100.000000 100.000000"
 preserveAspectRatio="xMidYMid meet">

<g transform="translate(0.000000,100.000000) scale(0.100000,-0.100000)"
fill="#000000" stroke="none">
<path d="M262 907 l-222 -70 2 -314 3 -314 228 -95 228 -94 227 94 227 94 3
315 c2 294 1 316 -15 321 -10 3 -113 34 -229 70 -116 37 -215 66 -220 65 -5 0
-109 -33 -232 -72z m430 -28 c93 -29 165 -56 160 -60 -9 -9 -332 -109 -351
-109 -19 0 -344 101 -354 109 -9 9 342 120 363 116 8 -2 90 -28 182 -56z
m-409 -148 c104 -33 190 -61 193 -64 2 -2 3 -137 2 -299 l-3 -295 -195 81
-195 81 -3 278 c-1 152 1 277 5 277 5 0 93 -27 196 -59z m635 -218 l-3 -278
-195 -82 -195 -81 -3 295 c-1 163 0 298 2 301 6 5 367 120 384 121 10 1 12
-57 10 -276z"/>
<path d="M214 626 c-12 -9 -24 -27 -27 -42 -9 -50 11 -89 78 -153 52 -49 65
-67 65 -91 0 -60 -71 -45 -98 19 -9 22 -25 42 -36 45 -16 4 -18 0 -13 -30 8
-46 39 -88 81 -108 72 -34 116 -13 116 55 0 55 -12 74 -87 145 -50 48 -64 67
-61 85 6 49 98 28 98 -22 0 -16 27 -39 44 -39 13 0 5 47 -14 77 -35 59 -107
87 -146 59z"/>
<path d="M831 658 c-5 -13 -14 -72 -21 -131 -7 -59 -16 -110 -20 -112 -4 -2
-15 44 -25 103 -10 59 -20 110 -22 115 -2 4 -12 3 -22 -2 -13 -7 -22 -38 -36
-128 -28 -180 -29 -181 -50 -40 -15 109 -21 127 -36 127 -10 0 -20 -4 -23 -9
-6 -10 50 -340 59 -349 3 -4 14 -1 23 4 12 8 23 47 39 139 12 71 24 133 26
139 2 6 14 -44 27 -112 22 -121 23 -123 44 -109 18 12 24 36 43 163 12 82 24
166 27 187 5 29 3 37 -9 37 -9 0 -19 -10 -24 -22z"/>
</g>
</svg>
